<?xml version="1.0" standalone="no"?>
<!DOCTYPE svg PUBLIC "-//W3C//DTD SVG 20010904//EN"
 "http://www.w3.org/TR/2001/REC-SVG-20010904/DTD/svg10.dtd">
<svg version="1.0" xmlns="http://www.w3.org/2000/svg"
 width="60.000000pt" height="60.000000pt" viewBox="0 0 60.000000 60.000000"
 preserveAspectRatio="xMidYMid meet">

<g transform="translate(0.000000,60.000000) scale(0.100000,-0.100000)"
fill="#000000" stroke="none">
<path d="M185 503 c-62 -70 -85 -108 -85 -137 0 -17 -3 -48 -6 -68 -5 -33 -2
-41 25 -68 17 -18 31 -35 31 -40 0 -15 52 -50 76 -50 16 0 24 -7 26 -22 2 -13
11 -24 21 -26 16 -3 17 11 17 192 0 183 -1 197 -20 216 -25 25 -65 26 -85 3z
m58 -66 c6 -20 6 -32 -2 -40 -8 -8 -11 -4 -11 15 0 14 -7 28 -15 32 -20 7 -19
28 2 24 9 -2 21 -16 26 -31z m-34 -67 c21 -10 41 -27 45 -36 11 -28 -3 -29
-25 -1 -12 16 -30 27 -45 27 -15 0 -24 6 -24 15 0 19 3 19 49 -5z m19 -96 c14
-10 22 -24 22 -42 l-1 -27 -14 33 c-13 28 -18 32 -55 32 -37 0 -49 8 -34 23 9
9 53 -2 82 -19z"/>
<path d="M316 321 c-3 -24 -6 -86 -6 -138 0 -85 2 -94 18 -91 9 2 18 13 20 26
3 16 10 22 28 22 14 0 35 11 47 25 12 13 37 40 55 59 36 40 37 43 21 96 -11
36 -13 37 -45 30 -19 -4 -50 -17 -70 -29 -20 -12 -39 -20 -41 -17 -10 10 7 37
29 45 21 7 19 9 -13 12 -37 5 -37 5 -43 -40z m141 -44 c-3 -9 -15 -12 -34 -10
-36 6 -63 -18 -63 -53 0 -13 -4 -24 -10 -24 -14 0 -12 53 3 73 15 21 89 48
101 37 5 -5 6 -15 3 -23z"/>
</g>
</svg>
